<svg xmlns="http://www.w3.org/2000/svg" viewBox="0 0 40.7 40.7"><defs><style>.cls-1{fill:#85db5e;}.cls-2{fill:#464843;}</style></defs><title>Asset 10</title><g id="Layer_2" data-name="Layer 2"><g id="Layer_14" data-name="Layer 14"><path class="cls-1" d="M6,6A19.6,19.6,0,0,1,20.35,0,19.61,19.61,0,0,1,34.73,6a19.61,19.61,0,0,1,6,14.38,19.6,19.6,0,0,1-6,14.38,19.6,19.6,0,0,1-14.38,6A19.6,19.6,0,0,1,6,34.73,19.6,19.6,0,0,1,0,20.35,19.6,19.6,0,0,1,6,6Z"/><path class="cls-1" d="M6,6A19.6,19.6,0,0,1,20.35,0,19.61,19.61,0,0,1,34.73,6a19.61,19.61,0,0,1,6,14.38,19.6,19.6,0,0,1-6,14.38,19.6,19.6,0,0,1-14.38,6A19.6,19.6,0,0,1,6,34.73,19.6,19.6,0,0,1,0,20.35,19.6,19.6,0,0,1,6,6Z"/><path class="cls-2" d="M34.59,9,23.22,20.35,34.59,31.72l-2.87,2.87L20.35,23.22,9,34.59,6.11,31.72,17.48,20.35,6.11,9,9,6.11,20.35,17.48,31.72,6.11Z"/></g></g></svg>