<svg xmlns="http://www.w3.org/2000/svg" viewBox="0 0 29.34 19.6"><defs><style>.cls-1{fill:#85db5e;}</style></defs><title>Asset 10</title><g id="Layer_2" data-name="Layer 2"><g id="Layer_12" data-name="Layer 12"><path class="cls-1" d="M29.34,2V19.6H0V2L13.7,13.18a2.65,2.65,0,0,0,.47.29,1.16,1.16,0,0,0,.5.11,1.26,1.26,0,0,0,.52-.11,1.85,1.85,0,0,0,.46-.29ZM14.24,9.71a2.26,2.26,0,0,1-.37-.2L2.24,0H27.11L15.47,9.51a1.17,1.17,0,0,1-.39.21,1.31,1.31,0,0,1-.42.07A1.08,1.08,0,0,1,14.24,9.71Z"/></g></g></svg>