<?xml version="1.0" encoding="utf-8"?>
<!-- Generator: Adobe Illustrator 21.1.0, SVG Export Plug-In . SVG Version: 6.00 Build 0)  -->
<svg version="1.1" id="Layer_1" xmlns="http://www.w3.org/2000/svg" xmlns:xlink="http://www.w3.org/1999/xlink" x="0px" y="0px"
	 viewBox="0 0 433 418.1" style="enable-background:new 0 0 433 418.1;" xml:space="preserve">
<style type="text/css">
	.st0{fill:#464843;}
</style>
<title>Asset 2</title>
<g>
	<g>
		<g>
			<rect y="118.8" class="st0" width="433" height="20.5"/>
		</g>
		<g>
			<rect y="278.9" class="st0" width="433" height="20.5"/>
		</g>
	</g>
	<g>
		<path class="st0" d="M204,45.5h21.2L242,28.8v50.8l-16.7-16.7H204v28.2h37.8l16.7-16.7v34.1h-88.6l16.7-16.7v-75L169.9,0h88.6
			v34.1l-16.7-16.7H204V45.5z"/>
		<path class="st0" d="M130.1,246.3l16.7,16.7H96l13.9-12.4l-63.3-62.6v58.2L63.3,263H12.5l16.7-16.7v-75l-16.7-16.7h50.8L50.9,167
			l61.8,62.6v-58.2L96,154.6h50.8l-16.7,16.7V246.3z"/>
		<path class="st0" d="M280.2,232.1l-31,31h-46.5l-31-31v-46.5l31-31h46.5l31,31V232.1z M262.9,192.1L242.7,172h-33.5l-20.1,20.1
			v33.5l20.1,20.1h33.5l20.1-20.1V192.1z"/>
		<path class="st0" d="M370.1,263l12.4-16.7l-43.8-44.1h25.1l9-9v-12.1l-9-9h-25.1v74.2l16.7,16.7h-50.8l16.7-16.7v-75l-16.7-16.7
			h68.8l16.7,16.7v30.4l-14.7,14.7l45.1,46.6H370.1z"/>
		<path class="st0" d="M247.2,400.9l16.7,16.7h-50.8l16.7-16.7v-57.8l-75,75l-75-75v57.8l16.7,16.7H45.9l16.7-16.7v-75l-16.7-16.7
			h50.3l-12.4,12.4l71.1,70.8l71.1-70.8l-12.4-12.4H264L247.2,326V400.9z"/>
		<path class="st0" d="M328,354.8h21.2l16.7-16.7v50.8l-16.7-16.7H328v28.2h37.8l16.7-16.7v34.1H294l16.7-16.7v-75L294,309.2h88.6
			v34.1l-16.7-16.7H328V354.8z"/>
	</g>
</g>
</svg>
