<svg xmlns="http://www.w3.org/2000/svg" viewBox="0 0 29.34 29.34"><defs><style>.cls-1{fill:#85db5e;}</style></defs><title>Asset 5</title><g id="Layer_2" data-name="Layer 2"><g id="Layer_12" data-name="Layer 12"><path class="cls-1" d="M18.61,0l2.08.07a15,15,0,0,1,2,.21,9.22,9.22,0,0,1,1.52.42,10.1,10.1,0,0,1,1.39.72,7,7,0,0,1,1.25,1,7.29,7.29,0,0,1,1,1.26,8.49,8.49,0,0,1,.7,1.38A9.11,9.11,0,0,1,29,6.61a11.85,11.85,0,0,1,.2,2q.06,1.18.09,2.09t0,3.93q0,3,0,3.94t-.07,2.08a15.21,15.21,0,0,1-.21,2,9.26,9.26,0,0,1-.42,1.52,10,10,0,0,1-.72,1.39,7,7,0,0,1-1,1.25,7.24,7.24,0,0,1-1.26,1,8.52,8.52,0,0,1-1.37.7,9.2,9.2,0,0,1-1.5.43,11.91,11.91,0,0,1-2,.2l-2.09.09q-.92,0-3.93,0t-3.94,0l-2.08-.07a15,15,0,0,1-2-.21A9.22,9.22,0,0,1,5.1,28.6a10,10,0,0,1-1.39-.72,7,7,0,0,1-1.25-1,7.22,7.22,0,0,1-1-1.26,8.37,8.37,0,0,1-.7-1.38,9.09,9.09,0,0,1-.43-1.5,11.85,11.85,0,0,1-.2-2Q.06,19.52,0,18.6t0-3.93q0-3,0-3.94T.11,8.65a15.06,15.06,0,0,1,.21-2A9.27,9.27,0,0,1,.75,5.1a9.9,9.9,0,0,1,.72-1.39,7,7,0,0,1,1-1.25,7.24,7.24,0,0,1,1.26-1A8.48,8.48,0,0,1,5.1.75,9.12,9.12,0,0,1,6.61.32a11.85,11.85,0,0,1,2-.2L10.75,0q.92,0,3.93,0T18.61,0ZM10.8,2.68l-2.09.07A10.37,10.37,0,0,0,7,3a7.29,7.29,0,0,0-1,.32,3.86,3.86,0,0,0-.89.44,5.36,5.36,0,0,0-.77.65,5.08,5.08,0,0,0-.62.75A4.54,4.54,0,0,0,3.21,6a9.27,9.27,0,0,0-.29,1,9.06,9.06,0,0,0-.17,1.73q-.06,1.18-.09,2.06t0,3.84q0,3,0,3.87t.07,2.09A10.16,10.16,0,0,0,3,22.34a7.27,7.27,0,0,0,.31,1,3.88,3.88,0,0,0,.44.89,5.33,5.33,0,0,0,.64.77,5.14,5.14,0,0,0,.75.62,4.57,4.57,0,0,0,.92.47,9.49,9.49,0,0,0,1,.29,9.11,9.11,0,0,0,1.73.17l2.06.09q.89,0,3.84,0t3.87,0l2.09-.07a10.27,10.27,0,0,0,1.71-.2,7.29,7.29,0,0,0,1-.31,3.86,3.86,0,0,0,.89-.44A5.3,5.3,0,0,0,25,25a5.06,5.06,0,0,0,.62-.75,4.56,4.56,0,0,0,.47-.92,9.43,9.43,0,0,0,.29-1,9.14,9.14,0,0,0,.17-1.73q.06-1.17.09-2.06t0-3.84q0-3,0-3.87t-.07-2.09A10.39,10.39,0,0,0,26.39,7a7.53,7.53,0,0,0-.32-1,3.9,3.9,0,0,0-.44-.89A5.38,5.38,0,0,0,25,4.3a5.19,5.19,0,0,0-.75-.62,4.59,4.59,0,0,0-.92-.47,9.86,9.86,0,0,0-1-.29,9.18,9.18,0,0,0-1.73-.17l-2.06-.09q-.89,0-3.84,0T10.8,2.68Zm6.82,5a7.55,7.55,0,0,1,4,4,7.7,7.7,0,0,1,0,5.9,7.55,7.55,0,0,1-4,4,7.71,7.71,0,0,1-5.9,0,7.55,7.55,0,0,1-4-4,7.72,7.72,0,0,1,0-5.9,7.55,7.55,0,0,1,4-4,7.71,7.71,0,0,1,5.9,0Zm.53,10.45a4.88,4.88,0,0,0,0-6.95,4.88,4.88,0,0,0-6.95,0,4.88,4.88,0,0,0,0,6.95,4.88,4.88,0,0,0,6.95,0ZM23.74,5.59a1.68,1.68,0,0,0-1.22-.49,1.74,1.74,0,0,0-1.26.5,1.64,1.64,0,0,0-.52,1.22,1.69,1.69,0,0,0,.53,1.26,1.73,1.73,0,0,0,1.25.52,1.6,1.6,0,0,0,1.23-.53,1.78,1.78,0,0,0,.49-1.25A1.65,1.65,0,0,0,23.74,5.59Z"/></g></g></svg>