<svg xmlns="http://www.w3.org/2000/svg" viewBox="0 0 40.7 40.7"><defs><style>.cls-1{fill:#fff;}.cls-2{fill:#464843;}</style></defs><title>Asset 3</title><g id="Layer_2" data-name="Layer 2"><g id="Layer_12" data-name="Layer 12"><path class="cls-1" d="M6,6A19.6,19.6,0,0,1,20.35,0,19.61,19.61,0,0,1,34.73,6a19.61,19.61,0,0,1,6,14.38,19.6,19.6,0,0,1-6,14.38,19.6,19.6,0,0,1-14.38,6A19.6,19.6,0,0,1,6,34.73,19.6,19.6,0,0,1,0,20.35,19.6,19.6,0,0,1,6,6Z"/><path class="cls-2" d="M6,6A19.6,19.6,0,0,1,20.35,0,19.61,19.61,0,0,1,34.73,6a19.61,19.61,0,0,1,6,14.38,19.6,19.6,0,0,1-6,14.38,19.6,19.6,0,0,1-14.38,6A19.6,19.6,0,0,1,6,34.73,19.6,19.6,0,0,1,0,20.35,19.6,19.6,0,0,1,6,6Zm16.38,8.26V10.13h-4v4.11Zm0,16.34V18.34h-4V30.57Z"/></g></g></svg>